<svg width="259" height="58" viewBox="0 0 259 58" fill="none" xmlns="http://www.w3.org/2000/svg">
<path d="M47.48 31.14H45.26V29.1H49.7V36H47.62V34.42H47.4C46.92 35.62 46.04 36.2 44.48 36.2H44.38C41.92 36.2 40.3 34.54 40.3 31.2V27.16C40.3 23.82 42.22 22.16 44.96 22.16H45.06C47.78 22.16 49.7 23.82 49.7 27.16H47.48C47.48 24.88 46.72 24.16 45.06 24.16H44.96C43.28 24.16 42.52 24.88 42.52 27.16V31.2C42.52 33.48 43.28 34.2 44.92 34.2H45.02C46.5 34.2 47.48 33.48 47.48 31.2V31.14ZM62.5322 22.36V24.42H56.1722V28.12H61.0722V30.16H56.1722V33.94H62.5322V36H53.9522V22.36H62.5322ZM68.7244 36H66.5844V22.36H69.7044L73.0244 32.52H73.2444V22.36H75.3844V36H72.2644L68.9444 25.84H68.7244V36ZM88.5166 22.36V24.42H82.1566V28.12H87.0566V30.16H82.1566V33.94H88.5166V36H79.9366V22.36H88.5166ZM101.869 26.64V26.72C101.869 29.1 100.829 30.48 98.7888 30.88V31.04L101.809 36H99.3488L96.3488 31H95.0288V36H92.8288V22.36H97.4088C100.349 22.36 101.869 23.78 101.869 26.64ZM99.6888 26.72V26.64C99.6888 25 99.2088 24.42 97.4088 24.42H95.0288V28.96H97.4088C99.2088 28.96 99.6888 28.34 99.6888 26.72ZM115.241 36H112.941L112.001 32.14H108.001L107.041 36H104.681L108.341 22.36H111.661L115.241 36ZM109.901 24.42L108.501 30.08H111.501L110.121 24.42H109.901ZM117.913 22.36H127.973V24.42H124.053V36H121.833V24.42H117.913V22.36ZM140.485 22.36V24.42H134.125V28.12H139.025V30.16H134.125V33.94H140.485V36H131.905V22.36H140.485ZM144.438 22.36H148.998C151.718 22.36 153.638 24.02 153.638 27.36V31C153.638 34.34 151.718 36 148.998 36H144.438V22.36ZM151.418 31V27.36C151.418 25.08 150.658 24.42 148.998 24.42H146.658V33.94H148.998C150.658 33.94 151.418 33.26 151.418 31ZM169.882 22.36H179.942V24.42H176.022V36H173.802V24.42H169.882V22.36ZM190.194 28.24V22.36H192.414V36H190.194V30.3H185.634V36H183.414V22.36H185.634V28.24H190.194ZM205.446 22.36V24.42H199.086V28.12H203.986V30.16H199.086V33.94H205.446V36H196.866V22.36H205.446ZM211.638 36H209.498V22.36H212.618L215.938 32.52H216.158V22.36H218.298V36H215.178L211.858 25.84H211.638V36Z" fill="white"/>
<rect x="2" y="2" width="255" height="54" stroke="white" stroke-opacity="0.25" stroke-width="2"/>
<path d="M254 1H258V6.5M254 57H258V53.5M5 1H1V6M5 57H1V54" stroke="white"/>
</svg>
