<svg width="273" height="58" viewBox="0 0 273 58" fill="none" xmlns="http://www.w3.org/2000/svg">
<rect x="5.21777" y="4" width="263.619" height="50" fill="#D9D9D9"/>
<rect x="212" y="4" width="57" height="50" fill="#D54E32" fill-opacity="0.46"/>
<rect x="1.5" y="1.5" width="270" height="55" stroke="white" stroke-opacity="0.25"/>
<path d="M267.782 1H272V6.5M267.782 57H272V53.5M5.2179 1H1V6M5.2179 57H1V54" stroke="white"/>
<path d="M46.48 32.14H44.26V30.1H48.7V37H46.62V35.42H46.4C45.92 36.62 45.04 37.2 43.48 37.2H43.38C40.92 37.2 39.3 35.54 39.3 32.2V28.16C39.3 24.82 41.22 23.16 43.96 23.16H44.06C46.78 23.16 48.7 24.82 48.7 28.16H46.48C46.48 25.88 45.72 25.16 44.06 25.16H43.96C42.28 25.16 41.52 25.88 41.52 28.16V32.2C41.52 34.48 42.28 35.2 43.92 35.2H44.02C45.5 35.2 46.48 34.48 46.48 32.2V32.14ZM61.5322 23.36V25.42H55.1722V29.12H60.0722V31.16H55.1722V34.94H61.5322V37H52.9522V23.36H61.5322ZM67.7244 37H65.5844V23.36H68.7044L72.0244 33.52H72.2444V23.36H74.3844V37H71.2644L67.9444 26.84H67.7244V37ZM87.5166 23.36V25.42H81.1566V29.12H86.0566V31.16H81.1566V34.94H87.5166V37H78.9366V23.36H87.5166ZM100.869 27.64V27.72C100.869 30.1 99.8288 31.48 97.7888 31.88V32.04L100.809 37H98.3488L95.3488 32H94.0288V37H91.8288V23.36H96.4088C99.3488 23.36 100.869 24.78 100.869 27.64ZM98.6888 27.72V27.64C98.6888 26 98.2088 25.42 96.4088 25.42H94.0288V29.96H96.4088C98.2088 29.96 98.6888 29.34 98.6888 27.72ZM114.241 37H111.941L111.001 33.14H107.001L106.041 37H103.681L107.341 23.36H110.661L114.241 37ZM108.901 25.42L107.501 31.08H110.501L109.121 25.42H108.901ZM116.913 23.36H126.973V25.42H123.053V37H120.833V25.42H116.913V23.36ZM139.485 23.36V25.42H133.125V29.12H138.025V31.16H133.125V34.94H139.485V37H130.905V23.36H139.485ZM158.67 37H156.53V23.36H159.65L162.97 33.52H163.19V23.36H165.33V37H162.21L158.89 26.84H158.67V37ZM173.982 37.2H173.862C171.142 37.2 169.222 35.54 169.222 32.2V28.16C169.222 24.82 171.142 23.16 173.862 23.16H173.982C176.702 23.16 178.622 24.82 178.622 28.16V32.2C178.622 35.54 176.702 37.2 173.982 37.2ZM173.862 35.2H173.982C175.642 35.2 176.402 34.46 176.402 32.2V28.16C176.402 25.9 175.642 25.16 173.982 25.16H173.862C172.202 25.16 171.442 25.9 171.442 28.16V32.2C171.442 34.46 172.202 35.2 173.862 35.2ZM185.594 37H182.474L181.654 23.36H183.474L183.994 35.14H184.254L185.514 23.36H188.294L189.574 35.14H189.814L190.354 23.36H192.174L191.354 37H188.234L187.034 25.76H186.794L185.594 37Z" fill="black"/>
<path d="M236 21L249 29.5L236 38" stroke="white" stroke-width="2"/>
</svg>
